HIERARCHY
ROOT pelvis
{
  OFFSET 0 100 0
  CHANNELS 6 Xposition Yposition Zposition Zrotation Xrotation Yrotation
  JOINT pelvis_right_femur
  {
    OFFSET -10.78128 -3.44521 -0.5502486
    CHANNELS 3 Zrotation Xrotation Yrotation
    JOINT right_femur_tibia
    {
      OFFSET -0.8047443 -44.0398 -0.1307829
      CHANNELS 3 Zrotation Xrotation Yrotation
      JOINT right_tibia_foot
      {
        OFFSET 3.006224 -47.83518 -5
        CHANNELS 3 Zrotation Xrotation Yrotation
        End Site
        {
          OFFSET 0 -5 15
        }
      }
    }
  }
  JOINT pelvis_left_femur
  {
    OFFSET 10.78128 -3.44521 -0.5502486
    CHANNELS 3 Zrotation Xrotation Yrotation
    JOINT left_femur_tibia
    {
      OFFSET 0.8047443 -44.0398 -0.1307829
      CHANNELS 3 Zrotation Xrotation Yrotation
      JOINT left_tibia_foot
      {
        OFFSET -4.370144 -48.10324 -4.275266
        CHANNELS 3 Zrotation Xrotation Yrotation
        End Site
        {
          OFFSET 0 -5 15
        }
      }
    }
  }
  JOINT pelvis_spine1
  {
    OFFSET 0 6.468898 -3.129235
    CHANNELS 3 Zrotation Xrotation Yrotation
    JOINT spine1
    {
      OFFSET 0 23.15396 4.99043
      CHANNELS 3 Zrotation Xrotation Yrotation
      JOINT spine2
      {
        OFFSET 0 20.79997 -5.064912
        CHANNELS 3 Zrotation Xrotation Yrotation
        JOINT neck
        {
          OFFSET 0 14.38658 9.616178
          CHANNELS 3 Zrotation Xrotation Yrotation
          End Site
          {
            OFFSET 0 20 0
          }
        }
      }
      JOINT right_manubrium
      {
        OFFSET -5.722621 16.35077 3.967754
        CHANNELS 3 Zrotation Xrotation Yrotation
        JOINT right_clavicle
        {
          OFFSET -13.16364 1.694482 -4.693211
          CHANNELS 3 Zrotation Xrotation Yrotation
          JOINT right_humerus
          {
            OFFSET -28.5034 -0.3100689 -2.792744
            CHANNELS 3 Zrotation Xrotation Yrotation
            JOINT right_radius
            {
              OFFSET -25.15693 0.02248979 -1.271978
              CHANNELS 3 Zrotation Xrotation Yrotation
              End Site
              {
                OFFSET -15 0 0
              }
            }
          }
        }
      }
      JOINT left_manubrium
      {
        OFFSET 5.722621 16.35077 3.967754
        CHANNELS 3 Zrotation Xrotation Yrotation
        JOINT left_clavicle
        {
          OFFSET 13.16364 1.694482 -4.693211
          CHANNELS 3 Zrotation Xrotation Yrotation
          JOINT left_humerus
          {
            OFFSET 29.39168 -1.063119 -2.237045
            CHANNELS 3 Zrotation Xrotation Yrotation
            JOINT left_radius
            {
              OFFSET 24.59957 -0.9528479 0.9047498
              CHANNELS 3 Zrotation Xrotation Yrotation
              End Site
              {
                OFFSET 15 -0 -0
              }
            }
          }
        }
      }
    }
  }
}
MOTION
Frames: 19
Frame Time: 0.0416666666667
-1577.194 83.90529 1843.736 -11.17513 4.163446 -112.8247 2.651035 18.26861 -2.456402 -0 24.77751 -0 -10.28197 -1.49932 -1.061155 -0.8181277 -14.89281 -11.21727 -0 29.95095 -0 -1.652522 -1.903823 18.49107 0.2271222 -4.640181 5.883079 -1.575117 15.59609 -2.030164 3.645921 23.82761 3.828497 2.116083 -16.74206 7.446096 -1.294871 -25.11786 12.14114 88.0116 12.02914 -9.156001 -0 0 19.1711 -32.65531 19.05148 21.44459 3.20764 -19.31577 -8.242257 -99.75031 18.85629 33.9214 0 0 -2.685256 0.6792302 21.14717 13.05882
-1582.969 83.94458 1842.366 -11.15652 4.213591 -113.0795 2.651035 18.26861 -2.456402 -0 24.77751 -0 -10.28197 -1.49932 -1.061155 -0.8181277 -14.89281 -11.21727 -0 29.95095 -0 -1.652522 -1.903823 18.49107 0.2271222 -4.640181 5.883079 -1.575117 15.59609 -2.030164 3.645921 23.82761 3.828497 2.116083 -16.74206 7.446096 -1.294871 -25.11786 12.14114 88.0116 12.02914 -9.156001 -0 0 19.1711 -32.65531 19.05148 21.44459 3.20764 -19.31577 -8.242257 -99.75031 18.85629 33.9214 0 0 -2.685256 0.6792302 21.14717 13.05882
-1588.738 83.98387 1840.971 -11.13769 4.263654 -113.3342 2.651035 18.26861 -2.456402 -0 24.77751 -0 -10.28197 -1.49932 -1.061155 -0.8181277 -14.89281 -11.21727 -0 29.95095 -0 -1.652522 -1.903823 18.49107 0.2271222 -4.640181 5.883079 -1.575117 15.59609 -2.030164 3.645921 23.82761 3.828497 2.116083 -16.74206 7.446096 -1.294871 -25.11786 12.14114 88.0116 12.02914 -9.156001 -0 0 19.1711 -32.65531 19.05148 21.44459 3.20764 -19.31577 -8.242257 -99.75031 18.85629 33.9214 0 0 -2.685256 0.6792302 21.14717 13.05882
-1594.5 84.02316 1839.55 -11.11864 4.313632 -113.589 2.651035 18.26861 -2.456402 -0 24.77751 -0 -10.28197 -1.49932 -1.061155 -0.8181277 -14.89281 -11.21727 -0 29.95095 -0 -1.652522 -1.903823 18.49107 0.2271222 -4.640181 5.883079 -1.575117 15.59609 -2.030164 3.645921 23.82761 3.828497 2.116083 -16.74206 7.446096 -1.294871 -25.11786 12.14114 88.0116 12.02914 -9.156001 -0 0 19.1711 -32.65531 19.05148 21.44459 3.20764 -19.31577 -8.242257 -99.75031 18.85629 33.9214 0 0 -2.685256 0.6792302 21.14717 13.05882
-1600.256 84.06245 1838.102 -11.09936 4.363525 -113.8439 2.651035 18.26861 -2.456402 -0 24.77751 -0 -10.28197 -1.49932 -1.061155 -0.8181277 -14.89281 -11.21727 -0 29.95095 -0 -1.652522 -1.903823 18.49107 0.2271222 -4.640181 5.883079 -1.575117 15.59609 -2.030164 3.645921 23.82761 3.828497 2.116083 -16.74206 7.446096 -1.294871 -25.11786 12.14114 88.0116 12.02914 -9.156001 -0 0 19.1711 -32.65531 19.05148 21.44459 3.20764 -19.31577 -8.242257 -99.75031 18.85629 33.9214 0 0 -2.685256 0.6792302 21.14717 13.05882
-1606.005 84.10174 1836.628 -11.07986 4.413333 -114.0987 2.651035 18.26861 -2.456402 -0 24.77751 -0 -10.28197 -1.49932 -1.061155 -0.8181277 -14.89281 -11.21727 -0 29.95095 -0 -1.652522 -1.903823 18.49107 0.2271222 -4.640181 5.883079 -1.575117 15.59609 -2.030164 3.645921 23.82761 3.828497 2.116083 -16.74206 7.446096 -1.294871 -25.11786 12.14114 88.0116 12.02914 -9.156001 -0 0 19.1711 -32.65531 19.05148 21.44459 3.20764 -19.31577 -8.242257 -99.75031 18.85629 33.9214 0 0 -2.685256 0.6792302 21.14717 13.05882
-1611.747 84.14104 1835.129 -11.06014 4.463053 -114.3536 2.651035 18.26861 -2.456402 -0 24.77751 -0 -10.28197 -1.49932 -1.061155 -0.8181277 -14.89281 -11.21727 -0 29.95095 -0 -1.652522 -1.903823 18.49107 0.2271222 -4.640181 5.883079 -1.575117 15.59609 -2.030164 3.645921 23.82761 3.828497 2.116083 -16.74206 7.446096 -1.294871 -25.11786 12.14114 88.0116 12.02914 -9.156001 -0 0 19.1711 -32.65531 19.05148 21.44459 3.20764 -19.31577 -8.242257 -99.75031 18.85629 33.9214 0 0 -2.685256 0.6792302 21.14717 13.05882
-1617.483 84.18033 1833.604 -11.04019 4.512686 -114.6085 2.651035 18.26861 -2.456402 -0 24.77751 -0 -10.28197 -1.49932 -1.061155 -0.8181277 -14.89281 -11.21727 -0 29.95095 -0 -1.652522 -1.903823 18.49107 0.2271222 -4.640181 5.883079 -1.575117 15.59609 -2.030164 3.645921 23.82761 3.828497 2.116083 -16.74206 7.446096 -1.294871 -25.11786 12.14114 88.0116 12.02914 -9.156001 -0 0 19.1711 -32.65531 19.05148 21.44459 3.20764 -19.31577 -8.242257 -99.75031 18.85629 33.9214 0 0 -2.685256 0.6792302 21.14717 13.05882
-1623.212 84.21962 1832.052 -11.02002 4.562229 -114.8635 2.651035 18.26861 -2.456402 -0 24.77751 -0 -10.28197 -1.49932 -1.061155 -0.8181277 -14.89281 -11.21727 -0 29.95095 -0 -1.652522 -1.903823 18.49107 0.2271222 -4.640181 5.883079 -1.575117 15.59609 -2.030164 3.645921 23.82761 3.828497 2.116083 -16.74206 7.446096 -1.294871 -25.11786 12.14114 88.0116 12.02914 -9.156001 -0 0 19.1711 -32.65531 19.05148 21.44459 3.20764 -19.31577 -8.242257 -99.75031 18.85629 33.9214 0 0 -2.685256 0.6792302 21.14717 13.05882
-1628.933 84.25891 1830.475 -10.99962 4.611682 -115.1185 2.651035 18.26861 -2.456402 -0 24.77751 -0 -10.28197 -1.49932 -1.061155 -0.8181277 -14.89281 -11.21727 -0 29.95095 -0 -1.652522 -1.903823 18.49107 0.2271222 -4.640181 5.883079 -1.575117 15.59609 -2.030164 3.645921 23.82761 3.828497 2.116083 -16.74206 7.446096 -1.294871 -25.11786 12.14114 88.0116 12.02914 -9.156001 -0 0 19.1711 -32.65531 19.05148 21.44459 3.20764 -19.31577 -8.242257 -99.75031 18.85629 33.9214 0 0 -2.685256 0.6792302 21.14717 13.05882
-1634.648 84.2982 1828.872 -10.97901 4.661045 -115.3735 2.651035 18.26861 -2.456402 -0 24.77751 -0 -10.28197 -1.49932 -1.061155 -0.8181277 -14.89281 -11.21727 -0 29.95095 -0 -1.652522 -1.903823 18.49107 0.2271222 -4.640181 5.883079 -1.575117 15.59609 -2.030164 3.645921 23.82761 3.828497 2.116083 -16.74206 7.446096 -1.294871 -25.11786 12.14114 88.0116 12.02914 -9.156001 -0 0 19.1711 -32.65531 19.05148 21.44459 3.20764 -19.31577 -8.242257 -99.75031 18.85629 33.9214 0 0 -2.685256 0.6792302 21.14717 13.05882
-1640.355 84.33749 1827.243 -10.95817 4.710315 -115.6286 2.651035 18.26861 -2.456402 -0 24.77751 -0 -10.28197 -1.49932 -1.061155 -0.8181277 -14.89281 -11.21727 -0 29.95095 -0 -1.652522 -1.903823 18.49107 0.2271222 -4.640181 5.883079 -1.575117 15.59609 -2.030164 3.645921 23.82761 3.828497 2.116083 -16.74206 7.446096 -1.294871 -25.11786 12.14114 88.0116 12.02914 -9.156001 -0 0 19.1711 -32.65531 19.05148 21.44459 3.20764 -19.31577 -8.242257 -99.75031 18.85629 33.9214 0 0 -2.685256 0.6792302 21.14717 13.05882
-1646.054 84.37678 1825.588 -10.93712 4.759493 -115.8837 2.651035 18.26861 -2.456402 -0 24.77751 -0 -10.28197 -1.49932 -1.061155 -0.8181277 -14.89281 -11.21727 -0 29.95095 -0 -1.652522 -1.903823 18.49107 0.2271222 -4.640181 5.883079 -1.575117 15.59609 -2.030164 3.645921 23.82761 3.828497 2.116083 -16.74206 7.446096 -1.294871 -25.11786 12.14114 88.0116 12.02914 -9.156001 -0 0 19.1711 -32.65531 19.05148 21.44459 3.20764 -19.31577 -8.242257 -99.75031 18.85629 33.9214 0 0 -2.685256 0.6792302 21.14717 13.05882
-1651.746 84.41607 1823.908 -10.91584 4.808577 -116.1389 2.651035 18.26861 -2.456402 -0 24.77751 -0 -10.28197 -1.49932 -1.061155 -0.8181277 -14.89281 -11.21727 -0 29.95095 -0 -1.652522 -1.903823 18.49107 0.2271222 -4.640181 5.883079 -1.575117 15.59609 -2.030164 3.645921 23.82761 3.828497 2.116083 -16.74206 7.446096 -1.294871 -25.11786 12.14114 88.0116 12.02914 -9.156001 -0 0 19.1711 -32.65531 19.05148 21.44459 3.20764 -19.31577 -8.242257 -99.75031 18.85629 33.9214 0 0 -2.685256 0.6792302 21.14717 13.05882
-1657.431 84.45536 1822.202 -10.89434 4.857565 -116.394 2.651035 18.26861 -2.456402 -0 24.77751 -0 -10.28197 -1.49932 -1.061155 -0.8181277 -14.89281 -11.21727 -0 29.95095 -0 -1.652522 -1.903823 18.49107 0.2271222 -4.640181 5.883079 -1.575117 15.59609 -2.030164 3.645921 23.82761 3.828497 2.116083 -16.74206 7.446096 -1.294871 -25.11786 12.14114 88.0116 12.02914 -9.156001 -0 0 19.1711 -32.65531 19.05148 21.44459 3.20764 -19.31577 -8.242257 -99.75031 18.85629 33.9214 0 0 -2.685256 0.6792302 21.14717 13.05882
-1663.108 84.49465 1820.47 -10.87262 4.906458 -116.6493 2.651035 18.26861 -2.456402 -0 24.77751 -0 -10.28197 -1.49932 -1.061155 -0.8181277 -14.89281 -11.21727 -0 29.95095 -0 -1.652522 -1.903823 18.49107 0.2271222 -4.640181 5.883079 -1.575117 15.59609 -2.030164 3.645921 23.82761 3.828497 2.116083 -16.74206 7.446096 -1.294871 -25.11786 12.14114 88.0116 12.02914 -9.156001 -0 0 19.1711 -32.65531 19.05148 21.44459 3.20764 -19.31577 -8.242257 -99.75031 18.85629 33.9214 0 0 -2.685256 0.6792302 21.14717 13.05882
-1668.777 84.53394 1818.713 -10.85068 4.955254 -116.9045 2.651035 18.26861 -2.456402 -0 24.77751 -0 -10.28197 -1.49932 -1.061155 -0.8181277 -14.89281 -11.21727 -0 29.95095 -0 -1.652522 -1.903823 18.49107 0.2271222 -4.640181 5.883079 -1.575117 15.59609 -2.030164 3.645921 23.82761 3.828497 2.116083 -16.74206 7.446096 -1.294871 -25.11786 12.14114 88.0116 12.02914 -9.156001 -0 0 19.1711 -32.65531 19.05148 21.44459 3.20764 -19.31577 -8.242257 -99.75031 18.85629 33.9214 0 0 -2.685256 0.6792302 21.14717 13.05882
-1674.437 84.57323 1816.93 -10.82852 5.003952 -117.1598 2.651035 18.26861 -2.456402 -0 24.77751 -0 -10.28197 -1.49932 -1.061155 -0.8181277 -14.89281 -11.21727 -0 29.95095 -0 -1.652522 -1.903823 18.49107 0.2271222 -4.640181 5.883079 -1.575117 15.59609 -2.030164 3.645921 23.82761 3.828497 2.116083 -16.74206 7.446096 -1.294871 -25.11786 12.14114 88.0116 12.02914 -9.156001 -0 0 19.1711 -32.65531 19.05148 21.44459 3.20764 -19.31577 -8.242257 -99.75031 18.85629 33.9214 0 0 -2.685256 0.6792302 21.14717 13.05882
-1680.09 84.61252 1815.121 -10.80614 5.052551 -117.4151 2.651035 18.26861 -2.456402 -0 24.77751 -0 -10.28197 -1.49932 -1.061155 -0.8181277 -14.89281 -11.21727 -0 29.95095 -0 -1.652522 -1.903823 18.49107 0.2271222 -4.640181 5.883079 -1.575117 15.59609 -2.030164 3.645921 23.82761 3.828497 2.116083 -16.74206 7.446096 -1.294871 -25.11786 12.14114 88.0116 12.02914 -9.156001 -0 0 19.1711 -32.65531 19.05148 21.44459 3.20764 -19.31577 -8.242257 -99.75031 18.85629 33.9214 0 0 -2.685256 0.6792302 21.14717 13.05882
